<?xml version="1.0" standalone="no"?>
<!DOCTYPE svg PUBLIC "-//W3C//DTD SVG 20010904//EN"
 "http://www.w3.org/TR/2001/REC-SVG-20010904/DTD/svg10.dtd">
<svg version="1.0" xmlns="http://www.w3.org/2000/svg"
 width="310.000000pt" height="310.000000pt" viewBox="0 0 310.000000 310.000000"
 preserveAspectRatio="xMidYMid meet">
<metadata>
Created by potrace 1.11, written by Peter Selinger 2001-2013
</metadata>
<g transform="translate(0.000000,310.000000) scale(0.100000,-0.100000)"
fill="#000000" stroke="none">
<path d="M2186 2858 c-15 -21 -16 -21 -16 -3 0 16 -2 17 -9 5 -6 -8 -7 -18 -4
-23 3 -5 -5 -4 -17 3 -23 13 -43 4 -21 -9 9 -6 10 -11 2 -15 -6 -4 -11 -2 -11
4 0 6 -5 8 -11 5 -6 -5 -4 -12 8 -21 17 -13 17 -13 0 -14 -10 0 -15 -5 -12
-10 4 -6 11 -8 16 -5 5 4 5 -4 -1 -19 -7 -20 -6 -26 8 -29 15 -4 15 -5 1 -6
-9 0 -19 -8 -23 -16 -5 -15 9 -22 17 -7 2 4 3 2 1 -4 -1 -6 2 -16 8 -22 6 -6
6 -12 -3 -17 -7 -5 -10 -4 -6 2 4 6 0 14 -8 17 -13 4 -14 2 -5 -14 6 -11 10
-28 8 -38 -2 -11 2 -16 12 -14 12 3 13 1 3 -9 -14 -14 -18 -33 -5 -26 4 3 8
-6 9 -20 0 -15 -2 -21 -6 -14 -6 9 -12 7 -22 -5 -8 -10 -9 -15 -3 -11 7 4 15
0 18 -9 3 -8 2 -12 -4 -9 -6 3 -10 2 -10 -4 0 -5 8 -15 18 -21 15 -10 14 -11
-5 -7 -20 4 -21 3 -12 -14 5 -11 15 -17 22 -13 9 5 8 3 0 -7 -14 -14 -18 -33
-5 -26 4 3 8 -6 9 -20 0 -15 -2 -21 -6 -14 -6 9 -12 7 -22 -5 -8 -10 -9 -15
-3 -11 7 4 15 0 18 -9 3 -8 2 -12 -4 -9 -6 3 -10 2 -10 -4 0 -5 8 -15 18 -21
15 -10 14 -11 -6 -6 -23 5 -24 4 -5 -16 10 -12 12 -18 6 -14 -19 11 -16 -10 5
-30 16 -17 16 -17 0 -11 -10 3 -20 2 -23 -3 -4 -6 1 -10 9 -10 10 0 13 -6 10
-15 -4 -9 0 -15 7 -15 11 0 11 -3 -1 -10 -13 -9 -13 -11 0 -21 13 -9 12 -10
-2 -5 -20 6 -25 -9 -7 -20 8 -4 7 -9 -2 -14 -17 -11 -20 -70 -3 -63 9 3 11 -2
7 -18 -4 -15 -3 -20 5 -15 8 5 10 1 5 -10 -5 -14 -8 -13 -20 7 -10 17 -12 18
-7 4 4 -11 8 -31 9 -45 2 -15 8 -24 16 -22 11 3 12 1 2 -9 -14 -14 -18 -33 -5
-26 4 3 8 -6 9 -20 0 -15 -2 -21 -6 -14 -6 9 -12 7 -22 -5 -8 -10 -9 -15 -3
-11 7 4 15 0 18 -9 3 -8 2 -12 -4 -9 -6 3 -10 2 -10 -4 0 -5 8 -15 18 -21 15
-10 14 -11 -5 -7 -20 4 -21 3 -12 -14 5 -11 15 -17 22 -13 9 5 8 3 0 -7 -14
-14 -18 -33 -5 -26 4 3 8 -6 9 -20 0 -15 -2 -21 -6 -14 -6 9 -12 7 -22 -5 -8
-10 -9 -15 -3 -11 7 4 15 0 18 -9 3 -8 2 -12 -4 -9 -6 3 -10 2 -10 -4 0 -5 8
-15 18 -21 15 -10 14 -11 -6 -6 -23 5 -24 4 -5 -16 10 -12 12 -18 6 -14 -19
11 -16 -10 5 -30 16 -17 16 -17 0 -11 -10 3 -20 2 -23 -3 -4 -6 1 -10 9 -10
10 0 13 -6 10 -15 -4 -9 0 -15 7 -15 11 0 11 -3 -1 -10 -13 -9 -13 -11 0 -21
13 -9 12 -10 -2 -5 -20 6 -25 -9 -7 -20 8 -4 7 -9 -2 -14 -17 -11 -20 -70 -3
-63 9 3 11 -2 7 -18 -4 -15 -3 -20 5 -15 8 5 10 1 5 -10 -5 -14 -8 -13 -20 7
-10 17 -12 18 -7 4 4 -11 8 -31 9 -45 2 -15 8 -24 16 -22 11 3 12 1 2 -9 -14
-14 -18 -33 -5 -26 4 3 8 -6 9 -20 0 -15 -2 -21 -6 -14 -6 9 -12 7 -22 -5 -8
-10 -9 -15 -3 -11 7 4 15 0 18 -9 3 -8 2 -12 -4 -9 -6 3 -10 2 -10 -4 0 -5 8
-15 18 -21 15 -10 14 -11 -5 -7 -20 4 -21 3 -12 -14 5 -11 15 -17 22 -13 9 5
8 3 0 -7 -14 -14 -18 -33 -5 -26 4 3 8 -6 9 -20 0 -15 -2 -21 -6 -14 -6 9 -12
7 -22 -5 -8 -10 -9 -15 -3 -11 7 4 15 0 18 -9 3 -8 2 -12 -4 -9 -6 3 -10 2
-10 -4 0 -5 8 -15 18 -21 15 -10 14 -11 -6 -6 -23 5 -24 4 -5 -16 10 -12 12
-18 6 -14 -19 11 -16 -10 5 -30 16 -17 16 -17 0 -11 -10 3 -20 2 -23 -3 -4 -6
1 -10 9 -10 10 0 13 -6 10 -15 -4 -9 0 -15 7 -15 11 0 11 -3 -1 -10 -13 -9
-13 -11 0 -21 13 -9 12 -10 -2 -5 -20 6 -25 -9 -7 -20 8 -4 7 -9 -2 -14 -17
-11 -20 -70 -3 -63 9 3 11 -2 7 -18 -4 -15 -3 -20 5 -15 8 5 10 1 5 -10 -5
-14 -8 -13 -20 7 -10 17 -12 18 -7 4 4 -11 8 -31 9 -45 2 -15 8 -24 16 -22 11
3 12 1 2 -9 -14 -14 -18 -33 -5 -26 4 3 8 -6 9 -20 0 -15 -2 -21 -6 -14 -6 9
-12 7 -22 -5 -8 -10 -9 -15 -3 -11 7 4 15 0 18 -9 3 -8 2 -12 -4 -9 -6 3 -10
2 -10 -4 0 -5 8 -15 18 -21 15 -10 15 -11 -4 -7 -13 3 -21 -1 -21 -9 0 -7 5
-10 10 -7 6 4 8 -5 5 -21 -4 -19 -1 -26 11 -27 11 0 8 -3 -6 -9 -22 -9 -32
-21 -15 -19 19 3 26 -2 13 -10 -19 -12 -23 -71 -4 -64 9 4 11 0 7 -11 -4 -10
-1 -16 7 -16 11 0 11 -2 0 -9 -13 -8 -13 -12 -1 -28 12 -15 12 -16 0 -5 -22
19 -35 14 -16 -7 13 -15 14 -20 4 -24 -15 -5 -17 -54 -5 -75 5 -7 14 -9 20 -6
8 5 8 3 0 -7 -14 -14 -18 -33 -5 -26 4 3 8 -6 9 -20 0 -15 -2 -21 -6 -14 -6 9
-12 7 -22 -5 -8 -10 -9 -15 -3 -11 7 4 15 0 18 -9 3 -8 2 -12 -4 -9 -6 3 -10
2 -10 -4 0 -5 8 -15 18 -21 15 -10 15 -11 -4 -7 -13 3 -21 -1 -21 -10 0 -8 6
-12 16 -8 8 3 12 3 8 -1 -4 -4 -2 -13 4 -20 8 -9 5 -11 -13 -8 -13 2 -17 2
-10 -2 6 -3 10 -10 7 -14 -3 -5 182 -9 425 -10 346 0 430 2 424 12 -6 10 -5
11 8 1 17 -14 32 -6 19 11 -15 20 -20 55 -7 50 7 -3 13 2 13 10 0 8 -4 13 -9
10 -4 -3 -8 0 -8 6 0 6 -5 8 -12 4 -7 -4 -8 -3 -4 5 4 6 11 9 16 6 4 -3 11 2
14 11 9 24 7 31 -4 14 -9 -13 -10 -13 -10 1 0 8 6 21 13 28 7 8 7 11 1 8 -7
-4 -14 4 -17 20 -5 25 -4 26 8 10 12 -17 13 -16 11 7 0 13 -4 22 -7 20 -4 -2
-9 7 -11 20 -4 19 -1 23 11 18 9 -3 13 -2 9 3 -4 4 -2 15 5 24 11 14 10 14 -5
2 -13 -9 -18 -10 -18 -2 0 7 -5 9 -12 5 -7 -4 -8 -3 -4 5 4 6 12 9 17 6 9 -6
11 -1 13 52 1 17 -2 29 -5 27 -4 -2 -9 7 -11 20 -4 19 -1 23 11 18 9 -3 13 -2
9 3 -4 4 -2 15 5 24 11 14 10 14 -5 2 -13 -9 -18 -10 -18 -2 0 7 -5 9 -12 5
-7 -4 -8 -3 -4 5 4 6 12 9 17 6 5 -4 10 -3 10 2 6 36 5 54 -4 60 -6 4 -7 1 -2
-8 5 -8 4 -10 0 -6 -14 12 -14 36 -1 31 7 -3 13 2 13 10 0 8 -4 13 -9 10 -4
-3 -8 0 -8 6 0 6 -5 8 -12 4 -7 -4 -8 -3 -4 5 4 6 11 9 16 6 4 -3 11 2 14 11
9 24 7 31 -4 14 -9 -13 -10 -13 -10 1 0 8 6 21 13 28 7 8 7 11 1 8 -7 -4 -14
4 -17 20 -5 27 -5 27 10 8 14 -18 15 -18 9 -1 -3 10 -1 25 6 34 11 13 10 14
-9 3 -20 -10 -22 -9 -16 5 4 12 3 15 -5 10 -18 -11 -14 0 5 15 15 12 16 12 8
-1 -4 -8 -4 -12 0 -7 10 9 14 57 4 51 -4 -2 -9 7 -11 20 -3 15 -1 23 6 20 7
-3 12 5 13 16 1 11 -3 20 -8 20 -6 0 -7 -5 -3 -12 4 -7 3 -8 -5 -4 -6 4 -9 12
-5 17 3 5 0 18 -7 27 -12 15 -12 15 7 -1 17 -14 21 -15 21 -2 0 8 -4 15 -8 15
-4 0 -10 7 -13 16 -6 15 -4 15 11 3 12 -10 15 -10 9 -1 -4 7 -2 20 6 29 12 15
11 15 -9 4 -20 -10 -22 -9 -16 5 4 12 3 15 -5 10 -18 -11 -14 0 5 15 14 12 16
12 8 0 -5 -9 -4 -12 3 -7 6 4 9 13 6 21 -4 8 -9 13 -13 10 -4 -2 -8 2 -8 9 0
8 6 12 12 10 6 -3 12 2 12 10 0 8 -4 13 -9 10 -4 -3 -8 0 -8 6 0 6 -5 8 -12 4
-7 -4 -8 -3 -4 5 4 6 11 9 16 6 4 -3 11 2 14 11 9 24 7 31 -4 14 -9 -13 -10
-13 -10 1 0 8 6 21 13 28 10 11 10 13 0 7 -8 -5 -13 -1 -14 11 0 10 -2 26 -4
35 -2 10 2 15 9 12 7 -3 13 2 13 10 0 8 -4 13 -9 10 -4 -3 -8 0 -8 6 0 6 -5 8
-12 4 -7 -4 -8 -3 -4 5 4 6 11 9 16 6 4 -3 11 2 14 11 9 24 7 31 -4 14 -9 -13
-10 -13 -10 0 0 9 6 22 13 29 7 8 7 11 1 8 -7 -4 -14 4 -17 20 -5 27 -5 27 10
8 14 -18 15 -18 9 -1 -3 10 -1 25 6 34 11 13 10 14 -9 3 -20 -10 -22 -9 -16 5
5 13 3 15 -8 9 -12 -8 -12 -6 0 8 16 20 25 23 15 5 -4 -7 -3 -10 1 -5 10 9 14
57 4 51 -4 -2 -9 7 -11 20 -3 15 -1 23 6 20 7 -3 12 5 13 16 1 11 -3 20 -8 20
-6 0 -7 -5 -3 -12 4 -7 3 -8 -5 -4 -6 4 -9 12 -5 17 3 5 0 18 -7 27 -12 15
-12 15 7 -1 17 -14 21 -15 21 -2 0 8 -4 15 -8 15 -4 0 -10 7 -13 16 -6 15 -4
15 11 3 12 -10 15 -10 9 -1 -4 7 -2 20 6 29 12 15 11 15 -9 4 -20 -10 -22 -9
-16 5 4 12 3 15 -5 10 -18 -11 -14 0 5 15 14 12 16 12 8 0 -5 -9 -4 -12 3 -7
6 4 9 13 6 21 -4 8 -9 13 -13 10 -4 -2 -8 2 -8 9 0 8 6 12 12 10 6 -3 12 2 12
10 0 8 -4 13 -9 10 -4 -3 -8 0 -8 6 0 6 -5 8 -12 4 -7 -4 -8 -3 -4 5 4 6 11 9
16 6 4 -3 11 2 14 11 9 24 7 31 -4 14 -9 -13 -10 -13 -10 0 0 9 6 22 13 29 10
11 10 13 0 7 -8 -5 -13 -1 -14 11 0 10 -2 26 -4 35 -2 10 2 15 9 12 7 -3 13 2
13 10 0 8 -4 13 -9 10 -4 -3 -8 0 -8 6 0 6 -5 8 -12 4 -7 -4 -8 -3 -4 5 4 6
11 9 16 6 4 -3 11 2 14 11 9 24 7 31 -4 14 -9 -13 -10 -13 -10 0 0 9 6 22 13
29 7 8 7 11 1 8 -7 -4 -14 4 -17 20 -5 27 -5 27 10 8 14 -18 15 -18 9 -1 -3
10 -1 25 6 34 11 13 10 14 -9 3 -20 -10 -22 -9 -16 5 5 13 3 15 -8 9 -12 -8
-12 -6 0 8 16 20 25 23 15 5 -4 -7 -3 -10 1 -5 10 9 14 57 4 51 -4 -2 -9 7
-11 20 -3 15 -1 23 6 20 7 -3 12 5 13 16 1 11 -3 20 -8 20 -6 0 -7 -5 -3 -12
4 -7 3 -8 -5 -4 -6 4 -9 12 -5 17 3 5 0 18 -7 27 -12 15 -12 15 7 -1 17 -14
21 -15 21 -2 0 8 -4 15 -8 15 -4 0 -10 7 -13 16 -6 15 -4 15 11 3 12 -10 15
-10 9 -1 -4 7 -2 20 6 29 12 15 11 15 -9 4 -20 -10 -22 -9 -16 5 4 12 3 15 -5
10 -18 -11 -14 0 5 15 14 12 16 12 8 0 -5 -9 -4 -12 3 -7 6 4 9 13 6 21 -4 8
-9 13 -13 10 -4 -2 -8 2 -8 9 0 8 6 12 12 10 6 -3 12 2 12 10 0 8 -4 13 -9 10
-4 -3 -8 0 -8 6 0 6 -5 8 -12 4 -7 -4 -8 -3 -4 5 4 6 11 9 16 6 4 -3 11 2 14
11 9 24 7 31 -4 14 -9 -13 -10 -13 -10 1 0 8 6 21 13 28 10 11 10 13 0 7 -8
-5 -13 -1 -14 11 0 10 -2 26 -4 35 -2 10 2 15 9 12 7 -3 13 2 13 10 0 8 -4 13
-9 10 -4 -3 -8 0 -8 6 0 6 -5 8 -12 4 -7 -4 -8 -3 -4 5 4 6 11 9 16 6 4 -3 11
2 14 11 9 24 7 31 -4 14 -9 -13 -10 -13 -10 0 0 9 6 22 13 29 7 8 7 11 1 8 -7
-4 -14 4 -17 20 -5 27 -5 27 10 8 14 -18 15 -18 9 -1 -3 10 -1 25 6 34 11 13
10 14 -9 3 -20 -10 -22 -9 -16 5 4 12 3 15 -5 10 -18 -11 -14 0 5 15 15 12 16
12 8 -1 -4 -8 -4 -12 0 -7 13 12 12 58 -1 53 -8 -3 -10 3 -6 16 4 16 2 19 -8
13 -8 -5 -11 -4 -6 3 4 6 12 9 19 6 7 -2 13 4 14 16 1 11 -3 20 -8 20 -6 0 -7
-5 -3 -12 5 -7 3 -8 -6 -3 -10 6 -10 11 3 20 15 11 15 13 -6 24 -12 6 -15 10
-6 7 9 -2 16 2 16 9 0 8 -7 11 -15 7 -11 -4 -13 -1 -7 8 5 8 4 11 -3 6 -5 -3
-12 -3 -15 1 -2 5 -2 3 -1 -4 2 -7 -2 -15 -8 -19 -6 -4 -8 -3 -5 3 4 6 0 16
-8 23 -13 11 -14 10 -9 -4 5 -13 2 -15 -12 -9 -11 3 -22 11 -26 17 -5 8 -8 7
-8 -1 0 -7 8 -17 18 -22 9 -6 12 -11 6 -11 -6 0 -14 3 -18 7 -12 12 -49 14
-57 2 -5 -8 -8 -8 -13 0 -4 6 -2 11 4 11 6 0 8 5 4 11 -4 8 -12 3 -20 -12 -7
-13 -13 -18 -14 -10 0 8 -3 11 -6 8 -4 -3 -16 -1 -28 5 -27 15 -55 17 -63 5
-3 -6 -1 -7 5 -3 6 3 13 3 16 -2 2 -4 -6 -8 -19 -8 -13 0 -22 4 -19 8 3 4 -2
5 -10 2 -9 -3 -13 -11 -9 -17 3 -6 1 -7 -6 -3 -6 4 -9 11 -6 16 3 4 -2 10 -10
13 -9 4 -12 1 -8 -9 7 -18 -2 -18 -21 2 -15 14 -16 13 -16 -8 l-1 -23 -12 22
c-12 22 -13 22 -25 2 -7 -11 -17 -17 -22 -14 -14 9 -1 27 13 19 7 -4 8 -3 4 1
-13 15 -37 14 -37 -1 0 -8 -5 -14 -11 -14 -6 0 -9 6 -6 13 6 15 -27 17 -40 2
-5 -4 -3 -5 4 -1 6 3 14 3 17 -2 2 -4 -6 -8 -19 -8 -13 0 -22 4 -19 8 3 4 -2
5 -10 2 -9 -3 -13 -11 -9 -17 3 -6 1 -7 -5 -3 -6 4 -9 14 -6 24 5 16 5 16 -9
0 -8 -10 -17 -15 -20 -11 -4 3 -13 1 -20 -5 -17 -14 -27 -6 -21 16 3 10 -2 6
-10 -8 -8 -14 -15 -20 -16 -14 0 6 -6 11 -12 12 -7 0 -25 3 -40 5 -19 3 -28 0
-28 -9 0 -8 -4 -14 -9 -14 -10 0 -9 19 2 38 14 21 -1 13 -17 -10z m-60 -758
c0 -9 -5 -17 -11 -17 -6 0 -11 8 -11 17 0 9 5 17 11 17 6 0 11 -8 11 -17z m0
-640 c0 -9 -5 -17 -11 -17 -6 0 -11 8 -11 17 0 9 5 17 11 17 6 0 11 -8 11 -17z
m0 -640 c0 -9 -5 -17 -11 -17 -6 0 -11 8 -11 17 0 9 5 17 11 17 6 0 11 -8 11
-17z m854 -320 c0 -5 -2 -10 -4 -10 -3 0 -8 5 -11 10 -3 6 -1 10 4 10 6 0 11
-4 11 -10z m-854 -80 c0 -9 -5 -17 -11 -17 -6 0 -11 8 -11 17 0 9 5 17 11 17
6 0 11 -8 11 -17z m854 -80 c0 -5 -2 -10 -4 -10 -3 0 -8 5 -11 10 -3 6 -1 10
4 10 6 0 11 -4 11 -10z m-854 -80 c0 -9 -5 -17 -11 -17 -6 0 -11 8 -11 17 0 9
5 17 11 17 6 0 11 -8 11 -17z"/>
<path d="M2264 2862 c4 -3 14 -7 22 -8 9 -1 13 0 10 4 -4 3 -14 7 -22 8 -9 1
-13 0 -10 -4z"/>
<path d="M2329 2853 c-13 -16 -12 -17 4 -4 16 13 21 21 13 21 -2 0 -10 -8 -17
-17z"/>
<path d="M2744 2862 c4 -3 14 -7 22 -8 9 -1 13 0 10 4 -4 3 -14 7 -22 8 -9 1
-13 0 -10 -4z"/>
<path d="M2093 2565 c0 -8 4 -15 9 -15 4 0 8 4 8 9 0 6 -4 12 -8 15 -5 3 -9
-1 -9 -9z"/>
<path d="M2976 2447 c3 -10 9 -15 12 -12 3 3 0 11 -7 18 -10 9 -11 8 -5 -6z"/>
<path d="M2093 2405 c0 -8 4 -15 9 -15 4 0 8 4 8 9 0 6 -4 12 -8 15 -5 3 -9
-1 -9 -9z"/>
<path d="M2090 2200 c0 -5 5 -10 11 -10 5 0 7 5 4 10 -3 6 -8 10 -11 10 -2 0
-4 -4 -4 -10z"/>
<path d="M190 2066 c0 -2 8 -10 18 -17 15 -13 16 -12 3 4 -13 16 -21 21 -21
13z"/>
<path d="M444 2062 c3 -6 -1 -15 -11 -20 -19 -9 -32 -8 -97 4 -26 5 -37 4 -33
-3 4 -6 -4 -8 -20 -5 -19 4 -24 2 -18 -8 5 -9 4 -11 -4 -6 -8 5 -9 12 -2 20 7
8 4 12 -10 12 -11 0 -18 -5 -15 -11 2 -6 -8 -11 -24 -10 -16 0 -26 3 -24 7 2
4 0 9 -6 13 -5 3 -10 -1 -10 -10 0 -9 -5 -13 -10 -10 -6 4 -7 12 -4 18 4 7 3
8 -2 4 -5 -5 -9 -14 -9 -20 0 -5 -6 -12 -13 -15 -8 -2 -10 2 -5 15 3 10 3 15
-1 12 -12 -11 -15 -48 -4 -55 6 -4 8 -3 5 3 -3 5 0 10 7 10 11 0 9 -8 -4 -33
-19 -32 -18 -33 3 -49 16 -11 17 -15 5 -11 -10 3 -20 0 -24 -6 -4 -6 -3 -8 2
-5 6 3 16 -4 23 -16 11 -18 11 -20 0 -9 -19 18 -25 15 -25 -13 0 -17 4 -24 13
-21 7 3 13 1 13 -4 0 -6 -6 -10 -14 -10 -17 0 -14 -34 6 -58 11 -13 11 -14 -1
-7 -11 6 -13 4 -8 -7 3 -9 0 -21 -6 -27 -8 -8 -6 -15 6 -28 10 -12 13 -23 7
-33 -11 -18 -3 -33 13 -23 7 4 6 0 -2 -10 -16 -20 -25 -23 -15 -4 5 9 3 9 -7
-1 -12 -11 -12 -14 1 -22 8 -5 19 -6 25 -3 5 4 -1 -6 -15 -22 -21 -23 -22 -27
-6 -21 15 5 17 4 7 -8 -8 -9 -8 -16 -2 -20 12 -8 6 -45 -9 -60 -7 -7 -4 -16
12 -29 16 -13 18 -17 6 -13 -10 3 -20 0 -24 -6 -4 -6 -3 -8 2 -5 6 3 16 -4 23
-16 11 -18 11 -20 0 -9 -19 18 -25 15 -25 -13 0 -17 4 -24 13 -21 7 3 13 1 13
-4 0 -6 -6 -10 -14 -10 -17 0 -14 -34 6 -58 11 -13 11 -14 -1 -7 -11 6 -13 4
-8 -7 3 -9 0 -21 -6 -27 -8 -8 -6 -15 6 -28 10 -12 13 -23 7 -33 -10 -16 -3
-33 11 -25 15 10 10 -2 -8 -16 -15 -12 -16 -12 -8 1 6 12 6 13 -6 2 -12 -11
-12 -14 1 -22 8 -5 19 -6 25 -3 5 4 -1 -6 -15 -22 -21 -23 -22 -27 -6 -21 15
5 17 4 7 -8 -8 -9 -8 -16 -2 -20 12 -8 6 -45 -9 -60 -7 -7 -4 -16 12 -29 16
-13 18 -17 6 -13 -10 3 -20 0 -24 -6 -4 -6 -3 -8 2 -5 6 3 16 -4 23 -16 11
-18 11 -20 0 -10 -19 19 -25 16 -25 -12 0 -17 4 -24 13 -21 7 3 13 1 13 -4 0
-6 -6 -10 -14 -10 -17 0 -14 -34 6 -58 11 -13 11 -14 -1 -7 -11 6 -13 4 -8 -7
3 -9 0 -21 -6 -27 -8 -8 -6 -15 6 -28 10 -12 13 -23 7 -33 -11 -18 -3 -33 13
-23 7 4 6 0 -2 -10 -16 -20 -25 -23 -15 -4 5 9 3 9 -7 -1 -12 -11 -12 -14 1
-22 8 -5 19 -6 25 -3 5 4 -1 -6 -15 -22 -21 -23 -22 -27 -6 -21 15 5 17 4 7
-8 -8 -9 -8 -16 -2 -20 12 -8 6 -45 -9 -60 -7 -7 -4 -16 12 -29 16 -13 18 -17
6 -13 -10 3 -20 0 -24 -6 -4 -6 -3 -8 2 -5 6 3 16 -4 23 -16 11 -18 11 -20 0
-9 -19 18 -25 15 -25 -13 0 -17 4 -24 13 -21 7 3 13 1 13 -4 0 -6 -6 -10 -14
-10 -17 0 -14 -34 6 -58 11 -13 11 -14 -1 -7 -11 6 -13 4 -8 -7 3 -9 0 -21 -6
-27 -8 -8 -6 -15 6 -28 10 -12 13 -23 7 -33 -10 -16 -3 -33 11 -25 15 10 10
-2 -8 -16 -15 -12 -16 -12 -8 1 6 12 6 13 -6 2 -12 -11 -12 -14 1 -22 8 -5 19
-6 25 -3 5 4 -1 -6 -15 -22 -21 -23 -22 -27 -6 -21 15 5 17 4 8 -7 -7 -8 -9
-17 -5 -21 10 -10 13 -37 3 -31 -13 8 -21 -26 -10 -40 8 -9 7 -14 -2 -18 -7
-3 186 -6 430 -6 299 0 442 3 442 10 0 6 4 8 8 5 4 -2 8 4 8 14 0 14 -4 16
-12 9 -9 -8 -11 -5 -7 9 2 11 0 23 -7 27 -7 4 -8 11 -2 18 16 20 25 70 11 61
-8 -4 -9 -3 -5 4 4 7 4 18 -1 25 -13 21 -12 36 5 49 13 11 14 11 7 -1 -5 -10
-4 -12 4 -7 9 6 9 11 0 22 -6 7 -15 11 -20 8 -5 -3 -9 0 -9 5 0 6 5 11 11 11
13 0 9 49 -6 69 -7 11 -7 13 2 8 7 -5 12 -1 12 10 0 10 1 33 1 52 1 19 5 42
10 52 10 18 -10 45 -23 32 -4 -3 -7 -1 -7 6 0 9 8 11 21 8 17 -4 19 -3 10 6
-6 6 -11 22 -11 35 0 14 -4 21 -11 16 -8 -4 -8 0 0 15 14 25 23 28 14 4 -7
-19 -5 -18 17 10 11 15 11 18 -1 15 -16 -4 -23 65 -9 92 10 19 -10 47 -23 33
-4 -3 -7 -1 -7 5 0 7 5 12 11 12 13 0 9 49 -6 69 -7 11 -7 13 2 8 13 -8 15 31
2 48 -4 6 -3 17 3 25 8 12 9 12 4 -2 -3 -10 -2 -18 3 -18 5 0 11 9 14 20 3 12
1 18 -5 14 -7 -5 -9 2 -4 20 4 16 3 25 -2 22 -5 -3 -7 6 -4 21 3 15 1 24 -5
20 -5 -3 -10 0 -10 8 0 11 4 12 14 3 7 -6 16 -8 20 -4 3 3 1 6 -5 6 -7 0 -12
9 -12 21 0 12 -4 17 -11 13 -8 -4 -8 0 0 15 14 25 23 28 14 4 -7 -19 -5 -18
17 10 7 10 9 17 4 15 -10 -3 -12 -1 -24 43 -7 25 -7 29 4 20 9 -8 13 -7 13 4
0 8 -7 15 -16 16 -11 0 -12 2 -3 6 6 2 9 9 6 15 -9 14 -11 68 -3 62 4 -2 9 5
12 16 3 11 1 23 -4 26 -5 3 -8 0 -7 -7 2 -6 -4 -14 -12 -16 -9 -3 -11 -1 -5 4
12 9 13 23 2 41 -8 11 -2 16 17 13 5 -1 5 6 1 16 -9 25 -13 73 -4 67 4 -2 9 5
12 16 3 11 1 23 -4 26 -5 3 -8 0 -7 -7 2 -6 -4 -14 -12 -16 -9 -3 -11 -1 -5 4
12 9 13 23 2 41 -8 12 -2 16 17 13 5 -1 4 5 -4 13 -7 9 -9 16 -5 16 4 0 1 8
-6 17 -8 10 -9 14 -2 10 7 -5 12 -1 12 10 0 10 1 33 1 52 1 19 5 42 10 52 10
18 -10 45 -23 32 -4 -3 -7 -1 -7 5 0 7 5 12 11 12 13 0 9 49 -6 69 -8 12 -7
13 4 6 11 -6 13 -4 8 9 -4 9 -3 14 2 11 5 -3 13 0 17 6 4 7 3 9 -2 6 -6 -3
-16 -2 -24 4 -13 7 -12 9 2 9 9 0 20 5 24 12 4 7 3 8 -4 4 -7 -4 -12 -1 -12 8
0 9 -5 16 -12 16 -6 0 -8 3 -5 6 4 4 13 2 20 -4 10 -9 14 -8 14 3 0 8 -6 15
-13 15 -7 0 -16 5 -20 12 -5 7 -3 8 6 3 10 -6 12 -4 7 9 -6 14 -3 17 10 12 13
-5 11 0 -7 21 -14 15 -18 22 -10 16 14 -10 15 -7 12 24 -3 23 0 39 9 45 10 6
7 7 -10 3 -15 -5 -21 -3 -17 3 3 5 -1 12 -9 16 -8 3 -17 0 -21 -6 -5 -7 -2 -8
6 -3 8 5 11 4 6 -3 -5 -8 -18 -7 -47 3 -32 12 -40 12 -36 2 5 -14 -55 -18 -69
-5 -4 4 -14 2 -22 -5 -13 -10 -15 -9 -9 5 3 10 1 20 -5 24 -7 4 -8 3 -4 -4 3
-6 -1 -15 -11 -20 -19 -9 -32 -8 -97 4 -26 5 -37 4 -33 -3 4 -6 -4 -8 -20 -5
-19 4 -24 2 -18 -8 5 -9 4 -11 -4 -6 -8 5 -9 12 -2 20 7 8 4 12 -10 12 -11 0
-18 -5 -15 -11 4 -12 -58 -14 -70 -3 -4 4 -14 2 -22 -5 -13 -10 -15 -9 -9 5 3
10 1 20 -5 24 -7 4 -8 3 -4 -4z m-309 -252 c-3 -5 -1 -10 6 -10 7 0 10 -3 6
-6 -9 -9 -28 6 -22 17 4 5 8 9 11 9 3 0 2 -4 -1 -10z m0 -90 c3 -5 1 -10 -4
-10 -6 0 -11 5 -11 10 0 6 2 10 4 10 3 0 8 -4 11 -10z m855 -60 c-6 -11 -13
-20 -16 -20 -2 0 0 9 6 20 6 11 13 20 16 20 2 0 0 -9 -6 -20z m-5 -49 c3 -5 2
-12 -3 -15 -5 -3 -9 1 -9 9 0 17 3 19 12 6z m-850 -281 c-3 -5 -1 -10 6 -10 7
0 10 -3 6 -6 -9 -9 -28 6 -22 17 4 5 8 9 11 9 3 0 2 -4 -1 -10z m0 -90 c3 -5
1 -10 -4 -10 -6 0 -11 5 -11 10 0 6 2 10 4 10 3 0 8 -4 11 -10z m855 -134 c0
-3 -4 -8 -10 -11 -5 -3 -10 -1 -10 4 0 6 5 11 10 11 6 0 10 -2 10 -4z m-855
-256 c-3 -5 -1 -10 6 -10 7 0 10 -3 6 -6 -9 -9 -28 6 -22 17 4 5 8 9 11 9 3 0
2 -4 -1 -10z m0 -90 c3 -5 1 -10 -4 -10 -6 0 -11 5 -11 10 0 6 2 10 4 10 3 0
8 -4 11 -10z m855 -60 c-6 -11 -13 -20 -16 -20 -2 0 0 9 6 20 6 11 13 20 16
20 2 0 0 -9 -6 -20z m-5 -49 c3 -5 2 -12 -3 -15 -5 -3 -9 1 -9 9 0 17 3 19 12
6z m5 -191 c-6 -11 -13 -20 -16 -20 -2 0 0 9 6 20 6 11 13 20 16 20 2 0 0 -9
-6 -20z m-5 -49 c3 -5 2 -12 -3 -15 -5 -3 -9 1 -9 9 0 17 3 19 12 6z m-850
-41 c-3 -5 -1 -10 6 -10 7 0 10 -3 6 -6 -9 -9 -28 6 -22 17 4 5 8 9 11 9 3 0
2 -4 -1 -10z m0 -90 c3 -5 1 -10 -4 -10 -6 0 -11 5 -11 10 0 6 2 10 4 10 3 0
8 -4 11 -10z m5 -240 c0 -5 -5 -10 -11 -10 -5 0 -7 5 -4 10 3 6 8 10 11 10 2
0 4 -4 4 -10z"/>
<path d="M510 2066 c0 -2 8 -10 18 -17 15 -13 16 -12 3 4 -13 16 -21 21 -21
13z"/>
<path d="M830 2066 c0 -2 8 -10 18 -17 15 -13 16 -12 3 4 -13 16 -21 21 -21
13z"/>
<path d="M386 2051 c-3 -4 4 -7 14 -6 27 2 33 10 10 12 -11 1 -22 -2 -24 -6z"/>
<path d="M490 2050 c0 -5 5 -10 11 -10 5 0 7 5 4 10 -3 6 -8 10 -11 10 -2 0
-4 -4 -4 -10z"/>
<path d="M706 2051 c-3 -4 4 -7 14 -6 27 2 33 10 10 12 -11 1 -22 -2 -24 -6z"/>
<path d="M810 2050 c0 -5 5 -10 11 -10 5 0 7 5 4 10 -3 6 -8 10 -11 10 -2 0
-4 -4 -4 -10z"/>
<path d="M100 1980 c0 -5 5 -10 11 -10 5 0 7 5 4 10 -3 6 -8 10 -11 10 -2 0
-4 -4 -4 -10z"/>
<path d="M2093 1925 c0 -8 4 -15 9 -15 4 0 8 4 8 9 0 6 -4 12 -8 15 -5 3 -9
-1 -9 -9z"/>
<path d="M2976 1807 c3 -10 9 -15 12 -12 3 3 0 11 -7 18 -10 9 -11 8 -5 -6z"/>
<path d="M2093 1765 c0 -8 4 -15 9 -15 4 0 8 4 8 9 0 6 -4 12 -8 15 -5 3 -9
-1 -9 -9z"/>
<path d="M110 1679 c0 -5 5 -7 10 -4 6 3 10 8 10 11 0 2 -4 4 -10 4 -5 0 -10
-5 -10 -11z"/>
<path d="M996 1573 c-6 -14 -5 -15 5 -6 7 7 10 15 7 18 -3 3 -9 -2 -12 -12z"/>
<path d="M2090 1560 c0 -5 5 -10 11 -10 5 0 7 5 4 10 -3 6 -8 10 -11 10 -2 0
-4 -4 -4 -10z"/>
<path d="M110 1500 c-9 -6 -10 -10 -3 -10 6 0 15 5 18 10 8 12 4 12 -15 0z"/>
<path d="M987 1479 c7 -7 15 -10 18 -7 3 3 -2 9 -12 12 -14 6 -15 5 -6 -5z"/>
<path d="M995 1381 c-3 -5 -2 -12 3 -15 5 -3 9 1 9 9 0 17 -3 19 -12 6z"/>
<path d="M1207 1376 c-4 -10 -1 -13 8 -9 8 3 12 9 9 14 -7 12 -11 11 -17 -5z"/>
<path d="M1418 1378 c10 -13 10 -17 -4 -22 -24 -9 -31 -7 -14 5 11 8 8 9 -13
4 -17 -3 -26 -2 -23 4 7 11 -20 8 -31 -4 -4 -4 -2 -5 5 -1 6 4 12 2 12 -3 0
-12 -13 -14 -24 -4 -10 10 -38 13 -50 5 -6 -3 -18 -7 -26 -9 -10 -1 -9 3 4 13
11 8 15 14 10 14 -6 0 -15 -5 -22 -12 -16 -16 -64 -19 -59 -4 3 7 -4 12 -14
12 -14 0 -16 -3 -6 -15 9 -11 9 -13 0 -8 -7 4 -17 0 -23 -10 -11 -17 -11 -17
-6 0 3 9 1 17 -4 17 -6 0 -10 -5 -10 -11 0 -5 -6 -7 -12 -3 -7 4 -10 4 -6 -1
4 -4 3 -13 -2 -20 -7 -8 -5 -12 5 -12 8 0 11 5 8 11 -3 6 -2 7 2 3 11 -10 16
-39 5 -32 -4 3 -10 -2 -14 -10 -3 -8 0 -17 6 -21 7 -4 8 -3 4 4 -5 8 -1 10 10
5 12 -4 14 -8 6 -11 -10 -3 -10 -7 0 -20 11 -13 11 -14 -1 -7 -11 6 -13 4 -8
-8 3 -9 1 -19 -5 -23 -7 -4 -8 -3 -4 4 5 8 1 10 -10 5 -14 -5 -14 -7 -1 -14 9
-6 13 -17 10 -29 -3 -11 0 -20 6 -20 11 0 10 -22 -4 -54 -5 -11 -4 -21 3 -25
13 -8 11 -27 -6 -58 -9 -16 -9 -24 0 -29 7 -5 8 -3 3 6 -5 9 -4 11 3 6 17 -10
15 -26 -3 -26 -8 0 -15 -5 -15 -11 0 -5 5 -7 10 -4 6 3 10 1 10 -5 0 -6 -7
-13 -15 -16 -12 -5 -10 -10 8 -26 12 -11 17 -17 11 -14 -19 10 -25 -23 -6 -33
16 -10 16 -10 0 -11 -10 0 -18 -5 -18 -11 0 -5 5 -7 10 -4 6 3 10 1 10 -5 0
-6 -7 -13 -15 -16 -12 -5 -10 -10 8 -26 12 -11 17 -17 11 -14 -19 10 -25 -23
-6 -33 16 -10 16 -10 0 -11 -10 0 -18 -5 -18 -11 0 -5 4 -8 9 -5 5 3 11 -3 14
-15 5 -17 3 -18 -9 -8 -12 10 -13 9 -8 -5 3 -9 10 -16 15 -16 5 0 9 -5 9 -11
0 -5 -4 -7 -10 -4 -5 3 -10 -1 -10 -10 0 -9 5 -13 11 -10 6 4 5 -3 -3 -14 -10
-17 -10 -23 -1 -29 14 -9 12 -28 -5 -59 -10 -18 -9 -24 5 -32 17 -10 17 -10 1
-11 -10 0 -18 -4 -18 -10 0 -5 6 -7 14 -4 16 6 16 -19 1 -33 -4 -4 -5 -2 -1 4
5 9 2 11 -10 6 -15 -5 -15 -7 0 -15 12 -7 14 -14 6 -28 -8 -15 -6 -21 7 -29
17 -10 17 -10 1 -11 -10 0 -18 -5 -18 -11 0 -5 4 -8 8 -5 4 2 14 1 21 -3 9 -6
5 -10 -14 -15 l-26 -7 23 -20 c13 -11 18 -18 11 -15 -21 11 -21 -19 1 -44 17
-20 18 -22 2 -10 -17 13 -19 13 -14 0 3 -8 1 -23 -3 -32 -7 -12 -4 -20 8 -27
17 -10 17 -10 1 -11 -10 0 -18 -4 -18 -10 0 -5 6 -7 14 -4 16 6 16 -19 1 -33
-4 -4 -5 -2 -1 4 5 9 2 11 -10 6 -15 -5 -15 -7 0 -15 11 -6 14 -14 7 -26 -11
-22 -3 -44 12 -35 7 3 3 -3 -7 -15 -11 -12 -16 -25 -12 -30 4 -4 201 -7 438
-7 l431 0 16 25 c14 22 14 23 0 13 -13 -11 -15 -7 -15 31 1 24 3 43 6 41 3 -2
11 3 17 11 7 7 9 15 4 19 -5 3 -11 -1 -14 -7 -3 -10 -8 -10 -18 1 -8 8 -9 11
-3 8 7 -4 14 0 18 8 3 8 2 15 -3 15 -4 0 -8 7 -8 15 0 11 4 12 14 4 19 -16 16
-4 -3 16 -14 13 -14 19 -4 28 10 9 11 9 5 -2 -6 -10 -4 -12 4 -6 9 5 10 10 2
18 -13 13 -15 40 -2 32 5 -3 13 -1 16 5 4 6 3 10 -2 9 -20 -3 -25 2 -14 15 8
9 8 16 2 20 -6 4 -7 14 -4 23 5 12 3 14 -8 8 -11 -6 -12 -5 -1 6 6 7 12 17 12
22 0 4 -6 5 -12 1 -10 -6 -10 -4 0 7 6 7 12 17 12 22 0 4 -6 5 -12 1 -9 -5 -9
-2 1 9 9 12 10 17 2 17 -7 0 -9 5 -6 10 4 6 10 8 14 6 3 -3 7 4 7 14 0 14 -3
16 -13 8 -21 -17 -15 6 7 30 20 21 14 32 -6 12 -7 -7 -10 4 -10 34 1 24 3 43
6 41 3 -2 11 3 17 11 7 7 9 15 4 19 -5 3 -11 -1 -14 -7 -3 -10 -8 -10 -18 1
-8 8 -9 11 -3 8 7 -4 14 0 18 8 3 8 2 15 -3 15 -4 0 -8 7 -8 15 0 11 4 12 14
4 19 -16 16 -4 -3 16 -14 13 -14 19 -4 28 10 9 11 9 5 -2 -6 -10 -4 -12 4 -6
9 5 10 10 2 18 -15 15 -14 40 2 31 9 -6 9 -5 0 7 -9 11 -9 19 -2 26 7 7 8 13
0 17 -5 4 -7 14 -4 23 5 12 3 14 -8 8 -11 -6 -12 -5 -1 6 6 7 12 17 12 22 0 4
-6 5 -12 1 -10 -6 -10 -4 0 7 6 7 12 17 12 22 0 4 -6 5 -12 1 -9 -5 -9 -2 1 9
9 11 10 17 2 17 -6 0 -11 4 -11 10 0 5 6 7 13 4 8 -3 13 3 13 15 0 15 -3 17
-13 9 -21 -17 -15 6 7 30 20 21 14 32 -6 12 -7 -7 -10 4 -10 34 1 24 3 43 6
41 3 -2 10 3 17 10 10 10 9 14 -3 19 -9 3 -12 1 -9 -4 3 -6 1 -10 -4 -10 -14
0 -14 17 -1 25 6 3 10 11 10 16 0 6 -3 8 -8 5 -4 -2 -7 20 -7 49 0 29 2 52 5
50 3 -1 10 3 17 10 10 10 9 14 -3 19 -9 3 -12 1 -9 -4 3 -6 2 -10 -4 -10 -5 0
-9 9 -8 20 1 11 7 18 13 16 7 -3 10 3 7 15 -3 10 -9 19 -14 19 -5 0 -6 6 -3
14 3 8 0 17 -5 21 -6 3 -9 11 -5 17 3 5 -8 2 -25 -6 -17 -9 -31 -12 -31 -7 0
5 6 12 13 14 7 4 8 6 1 6 -6 1 -17 -6 -24 -14 -17 -20 -30 -19 -30 3 0 14 -2
14 -9 3 -5 -8 -19 -16 -32 -18 -18 -3 -20 -1 -9 12 7 9 10 18 6 22 -3 3 -6 1
-6 -5 0 -7 -9 -12 -21 -12 -11 0 -18 -4 -15 -8 3 -5 -1 -9 -9 -9 -8 0 -12 3
-10 7 2 3 -6 12 -18 20 -20 12 -21 11 -9 -2 10 -13 10 -17 -4 -22 -24 -9 -31
-7 -14 5 11 8 8 9 -13 4 -17 -3 -26 -2 -23 4 7 11 -20 8 -31 -4 -4 -4 -2 -5 5
-1 6 4 12 2 12 -3 0 -14 -13 -14 -28 1 -7 7 -12 9 -12 5 0 -4 -9 -3 -19 2 -14
8 -22 7 -31 -4 -17 -20 -30 -19 -30 3 0 14 -2 14 -9 3 -5 -8 -19 -16 -32 -18
-18 -3 -20 -1 -9 12 7 9 10 18 6 22 -3 3 -6 1 -6 -5 0 -7 -9 -12 -21 -12 -11
0 -18 -4 -15 -8 3 -5 -1 -9 -9 -9 -8 0 -12 3 -10 7 2 3 -6 12 -18 20 -20 12
-21 11 -9 -2z m533 -41 c-10 -9 -11 -8 -5 6 3 10 9 15 12 12 3 -3 0 -11 -7
-18z m-816 -417 c3 -6 -1 -7 -9 -4 -18 7 -21 14 -7 14 6 0 13 -4 16 -10z m0
-120 c3 -6 -1 -7 -9 -4 -18 7 -21 14 -7 14 6 0 13 -4 16 -10z m-5 -280 c0 -5
-5 -10 -11 -10 -5 0 -7 5 -4 10 3 6 8 10 11 10 2 0 4 -4 4 -10z m4 -118 c3 -5
-1 -9 -9 -9 -8 0 -12 4 -9 9 3 4 7 8 9 8 2 0 6 -4 9 -8z m1 -82 c3 -6 -1 -7
-9 -4 -18 7 -21 14 -7 14 6 0 13 -4 16 -10z m-5 -120 c0 -5 -5 -10 -11 -10 -5
0 -7 5 -4 10 3 6 8 10 11 10 2 0 4 -4 4 -10z m4 -118 c3 -5 -1 -9 -9 -9 -8 0
-12 4 -9 9 3 4 7 8 9 8 2 0 6 -4 9 -8z m3 -58 c-3 -3 -12 -4 -19 -1 -8 3 -5 6
6 6 11 1 17 -2 13 -5z"/>
<path d="M987 1319 c7 -7 15 -10 18 -7 3 3 -2 9 -12 12 -14 6 -15 5 -6 -5z"/>
<path d="M2093 1285 c0 -8 4 -15 9 -15 4 0 8 4 8 9 0 6 -4 12 -8 15 -5 3 -9
-1 -9 -9z"/>
<path d="M1100 1239 c0 -5 5 -7 10 -4 6 3 10 8 10 11 0 2 -4 4 -10 4 -5 0 -10
-5 -10 -11z"/>
<path d="M995 1221 c-3 -5 -2 -12 3 -15 5 -3 9 1 9 9 0 17 -3 19 -12 6z"/>
<path d="M110 1199 c0 -5 5 -7 10 -4 6 3 10 8 10 11 0 2 -4 4 -10 4 -5 0 -10
-5 -10 -11z"/>
<path d="M1983 1185 c0 -8 4 -15 9 -15 4 0 8 4 8 9 0 6 -4 12 -8 15 -5 3 -9
-1 -9 -9z"/>
<path d="M2976 1167 c3 -10 9 -15 12 -12 3 3 0 11 -7 18 -10 9 -11 8 -5 -6z"/>
<path d="M1102 1131 c-11 -7 -11 -9 0 -14 9 -3 15 1 15 9 0 8 -1 14 -1 14 -1
0 -7 -4 -14 -9z"/>
<path d="M2093 1125 c0 -8 4 -15 9 -15 4 0 8 4 8 9 0 6 -4 12 -8 15 -5 3 -9
-1 -9 -9z"/>
<path d="M1102 1051 c-11 -7 -11 -9 0 -14 9 -3 15 1 15 9 0 8 -1 14 -1 14 -1
0 -7 -4 -14 -9z"/>
<path d="M110 1020 c-9 -6 -10 -10 -3 -10 6 0 15 5 18 10 8 12 4 12 -15 0z"/>
<path d="M2090 920 c0 -5 5 -10 11 -10 5 0 7 5 4 10 -3 6 -8 10 -11 10 -2 0
-4 -4 -4 -10z"/>
<path d="M996 853 c-6 -14 -5 -15 5 -6 7 7 10 15 7 18 -3 3 -9 -2 -12 -12z"/>
<path d="M110 719 c0 -5 5 -7 10 -4 6 3 10 8 10 11 0 2 -4 4 -10 4 -5 0 -10
-5 -10 -11z"/>
<path d="M2093 645 c0 -8 4 -15 9 -15 4 0 8 4 8 9 0 6 -4 12 -8 15 -5 3 -9 -1
-9 -9z"/>
<path d="M1102 571 c-11 -7 -11 -9 0 -14 9 -3 15 1 15 9 0 8 -1 14 -1 14 -1 0
-7 -4 -14 -9z"/>
<path d="M110 540 c-9 -6 -10 -10 -3 -10 6 0 15 5 18 10 8 12 4 12 -15 0z"/>
<path d="M996 373 c-6 -14 -5 -15 5 -6 7 7 10 15 7 18 -3 3 -9 -2 -12 -12z"/>
<path d="M2090 360 c0 -5 5 -10 11 -10 5 0 7 5 4 10 -3 6 -8 10 -11 10 -2 0
-4 -4 -4 -10z"/>
<path d="M110 239 c0 -5 5 -7 10 -4 6 3 10 8 10 11 0 2 -4 4 -10 4 -5 0 -10
-5 -10 -11z"/>
<path d="M984 202 c2 -9 8 -17 15 -18 8 -2 8 -1 0 3 -8 4 -8 7 1 13 9 5 8 9
-3 13 -10 4 -14 0 -13 -11z"/>
<path d="M2093 165 c0 -8 4 -15 9 -15 4 0 8 4 8 9 0 6 -4 12 -8 15 -5 3 -9 -1
-9 -9z"/>
<path d="M985 90 c-3 -5 -1 -10 4 -10 6 0 11 5 11 10 0 6 -2 10 -4 10 -3 0 -8
-4 -11 -10z"/>
</g>
</svg>
